# xmcd CD database file
#
# Track frame offsets:
#	150
#	19966
#	40954
#	56558
#	77444
#	96157
#	116641
#	137127
#	153661
#	170301
#	189815
#	205879
#	223467
#	237399
#	254360
#	275777
#	305011
#	323497
#
# Disc length: 4589 seconds
#
# Revision: 2
# Processed by: cddbd v1.5.1PL2 Copyright (c) Steve Scherf et al.
# Submitted via: CDex 1.51
#
DISCID=0711eb12
DTITLE=UNICORN - THE VERY BEST OF UNICORN
DYEAR=1900
DGENRE=ロック (日本)
TTITLE0=メイビー・ブルー
TTITLE1=ピンク・プリズナー
TTITLE2=ペケペケ
TTITLE3=アイム・ア・ルーザー
TTITLE4=シュガー・ボーイ
TTITLE5=服部
TTITLE6=デーゲーム
TTITLE7=おかしな2人
TTITLE8=大迷惑
TTITLE9=人生は上々だ
TTITLE10=自転車泥棒
TTITLE11=働く男
TTITLE12=フーガ
TTITLE13=スターな男
TTITLE14=ヒゲとボイン
TTITLE15=雪が降る町
TTITLE16=与える男
TTITLE17=すばらしい日々
EXTD=
EXTT0=
EXTT1=
EXTT2=
EXTT3=
EXTT4=
EXTT5=
EXTT6=
EXTT7=
EXTT8=
EXTT9=
EXTT10=
EXTT11=
EXTT12=
EXTT13=
EXTT14=
EXTT15=
EXTT16=
EXTT17=
PLAYORDER=
